<svg width="48" height="48" viewBox="0 0 48 48" fill="none" xmlns="http://www.w3.org/2000/svg">
<path d="M24 44.02C35.0457 44.02 44 35.0657 44 24.02C44 12.9743 35.0457 4.02 24 4.02C12.9543 4.02 4 12.9743 4 24.02C4 35.0657 12.9543 44.02 24 44.02Z" fill="white"/>
<path d="M24 13.88C19.86 13.88 16.5 17.24 16.5 21.38C16.5 25.44 19.68 28.74 23.9 28.86C23.96 28.86 24.04 28.86 24.08 28.86C24.12 28.86 24.18 28.86 24.22 28.86C24.24 28.86 24.26 28.86 24.26 28.86C28.3 28.72 31.48 25.44 31.5 21.38C31.5 17.24 28.14 13.88 24 13.88Z" fill="url(#paint0_linear_777_16115)"/>
<path d="M37.5614 38.72C34.0014 42 29.2414 44.02 24.0014 44.02C18.7614 44.02 14.0014 42 10.4414 38.72C10.9214 36.9 12.2214 35.24 14.1214 33.96C19.5814 30.32 28.4614 30.32 33.8814 33.96C35.8014 35.24 37.0814 36.9 37.5614 38.72Z" fill="url(#paint1_linear_777_16115)"/>
<defs>
<linearGradient id="paint0_linear_777_16115" x1="14.2896" y1="13.88" x2="31.5208" y2="13.9282" gradientUnits="userSpaceOnUse">
<stop stop-color="#1E2E47"/>
<stop offset="1" stop-color="#4E75A7"/>
</linearGradient>
<linearGradient id="paint1_linear_777_16115" x1="6.44502" y1="31.23" x2="37.5982" y2="31.4145" gradientUnits="userSpaceOnUse">
<stop stop-color="#1E2E47"/>
<stop offset="1" stop-color="#4E75A7"/>
</linearGradient>
</defs>
</svg>
