<svg width="48" height="48" viewBox="0 0 48 48" fill="none" xmlns="http://www.w3.org/2000/svg">
<path d="M32.4781 7.29999H15.5181C10.5781 7.29999 6.57812 11.32 6.57812 16.24V35.06C6.57812 39.98 10.5981 44 15.5181 44H32.4581C37.3981 44 41.3981 39.98 41.3981 35.06V16.24C41.4181 11.3 37.3981 7.29999 32.4781 7.29999Z" fill="white"/>
<path d="M28.6995 4H19.2995C17.2195 4 15.5195 5.68 15.5195 7.76V9.64C15.5195 11.72 17.1995 13.4 19.2795 13.4H28.6995C30.7795 13.4 32.4595 11.72 32.4595 9.64V7.76C32.4795 5.68 30.7795 4 28.6995 4Z" fill="url(#paint0_linear_777_16105)"/>
<path d="M21.62 33.9C21.24 33.9 20.86 33.76 20.56 33.46L17.56 30.46C16.98 29.88 16.98 28.92 17.56 28.34C18.14 27.76 19.1 27.76 19.68 28.34L21.62 30.28L28.56 23.34C29.14 22.76 30.1 22.76 30.68 23.34C31.26 23.92 31.26 24.88 30.68 25.46L22.68 33.46C22.4 33.76 22 33.9 21.62 33.9Z" fill="url(#paint1_linear_777_16105)"/>
<defs>
<linearGradient id="paint0_linear_777_16105" x1="13.0232" y1="4" x2="32.4829" y2="4.09798" gradientUnits="userSpaceOnUse">
<stop stop-color="#1E2E47"/>
<stop offset="1" stop-color="#4E75A7"/>
</linearGradient>
<linearGradient id="paint1_linear_777_16105" x1="15.0634" y1="22.905" x2="31.1343" y2="22.9621" gradientUnits="userSpaceOnUse">
<stop stop-color="#1E2E47"/>
<stop offset="1" stop-color="#4E75A7"/>
</linearGradient>
</defs>
</svg>
