<svg width="48" height="48" viewBox="0 0 48 48" fill="none" xmlns="http://www.w3.org/2000/svg">
<path d="M38 18C38 20.9 37.14 23.56 35.66 25.78C33.5 28.98 30.08 31.24 26.1 31.82C25.42 31.94 24.72 32 24 32C23.28 32 22.58 31.94 21.9 31.82C17.92 31.24 14.5 28.98 12.34 25.78C10.86 23.56 10 20.9 10 18C10 10.26 16.26 4 24 4C31.74 4 38 10.26 38 18Z" fill="white"/>
<path d="M42.4982 36.94L39.1982 37.72C38.4582 37.9 37.8782 38.46 37.7182 39.2L37.0182 42.14C36.6382 43.74 34.5982 44.22 33.5382 42.96L23.9982 32L14.4582 42.98C13.3982 44.24 11.3582 43.76 10.9782 42.16L10.2782 39.22C10.0982 38.48 9.5182 37.9 8.7982 37.74L5.4982 36.96C3.9782 36.6 3.4382 34.7 4.5382 33.6L12.3382 25.8C14.4982 29 17.9182 31.26 21.8982 31.84C22.5782 31.96 23.2782 32.02 23.9982 32.02C24.7182 32.02 25.4182 31.96 26.0982 31.84C30.0782 31.26 33.4982 29 35.6582 25.8L43.4582 33.6C44.5582 34.68 44.0182 36.58 42.4982 36.94Z" fill="url(#paint0_linear_777_16112)"/>
<path d="M25.1599 11.96L26.3399 14.32C26.4999 14.64 26.9199 14.96 27.2999 15.02L29.4399 15.38C30.7999 15.6 31.1199 16.6 30.1399 17.58L28.4799 19.24C28.1999 19.52 28.0399 20.06 28.1399 20.46L28.6199 22.52C28.9999 24.14 28.1399 24.78 26.6999 23.92L24.6999 22.74C24.3399 22.52 23.7399 22.52 23.3799 22.74L21.3799 23.92C19.9399 24.76 19.0799 24.14 19.4599 22.52L19.9399 20.46C20.0199 20.08 19.8799 19.52 19.5999 19.24L17.9399 17.58C16.9599 16.6 17.2799 15.62 18.6399 15.38L20.7799 15.02C21.1399 14.96 21.5599 14.64 21.7199 14.32L22.8999 11.96C23.4799 10.68 24.5199 10.68 25.1599 11.96Z" fill="url(#paint1_linear_777_16112)"/>
<defs>
<linearGradient id="paint0_linear_777_16112" x1="-1.94948" y1="25.8" x2="44.0936" y2="26.0881" gradientUnits="userSpaceOnUse">
<stop stop-color="#1E2E47"/>
<stop offset="1" stop-color="#4E75A7"/>
</linearGradient>
<linearGradient id="paint1_linear_777_16112" x1="15.4057" y1="11" x2="30.7273" y2="11.0429" gradientUnits="userSpaceOnUse">
<stop stop-color="#1E2E47"/>
<stop offset="1" stop-color="#4E75A7"/>
</linearGradient>
</defs>
</svg>
