<svg width="48" height="48" viewBox="0 0 48 48" fill="none" xmlns="http://www.w3.org/2000/svg">
<path d="M21.5017 4.90001C22.8817 3.72001 25.1417 3.72001 26.5417 4.90001L29.7017 7.61999C30.3017 8.13999 31.4217 8.56005 32.2217 8.56005H35.6217C37.7417 8.56005 39.4817 10.3 39.4817 12.42V15.8199C39.4817 16.5999 39.9017 17.74 40.4217 18.34L43.1417 21.5C44.3217 22.88 44.3217 25.14 43.1417 26.54L40.4217 29.6999C39.9017 30.2999 39.4817 31.42 39.4817 32.22V35.62C39.4817 37.74 37.7417 39.48 35.6217 39.48H32.2217C31.4417 39.48 30.3017 39.9 29.7017 40.42L26.5417 43.14C25.1617 44.32 22.9017 44.32 21.5017 43.14L18.3417 40.42C17.7417 39.9 16.6217 39.48 15.8217 39.48H12.3617C10.2417 39.48 8.50171 37.74 8.50171 35.62V32.1999C8.50171 31.4199 8.08173 30.2999 7.58173 29.6999L4.88172 26.52C3.72172 25.14 3.72172 22.9 4.88172 21.52L7.58173 18.34C8.08173 17.74 8.50171 16.62 8.50171 15.84V12.42C8.50171 10.3 10.2417 8.56005 12.3617 8.56005H15.8217C16.6017 8.56005 17.7417 8.13999 18.3417 7.61999L21.5017 4.90001Z" fill="white"/>
<path d="M33.1609 22.14C32.7809 21.6 32.1409 21.3 31.3809 21.3H27.4809C27.2209 21.3 26.9809 21.2 26.8209 21C26.6609 20.8 26.5809 20.54 26.6209 20.26L27.1009 17.14C27.3009 16.22 26.6809 15.1599 25.7609 14.8599C24.9009 14.5399 23.8809 14.9799 23.4809 15.5799L19.6009 21.3399V20.6199C19.6009 19.2199 19.0009 18.64 17.5209 18.64H16.5409C15.0609 18.64 14.4609 19.2199 14.4609 20.6199V30.18C14.4609 31.58 15.0609 32.16 16.5409 32.16H17.5209C18.9209 32.16 19.5209 31.6199 19.5809 30.3399L22.5209 32.5999C22.9209 32.9999 23.8209 33.2199 24.4609 33.2199H28.1609C29.4409 33.2199 30.7209 32.2599 31.0009 31.0799L33.3409 23.9599C33.6009 23.3199 33.5409 22.66 33.1609 22.14Z" fill="url(#paint0_linear_777_16108)"/>
<defs>
<linearGradient id="paint0_linear_777_16108" x1="11.6554" y1="14.7524" x2="33.5258" y2="14.8154" gradientUnits="userSpaceOnUse">
<stop stop-color="#1E2E47"/>
<stop offset="1" stop-color="#4E75A7"/>
</linearGradient>
</defs>
</svg>
