<svg width="36" height="36" viewBox="0 0 36 36" fill="none" xmlns="http://www.w3.org/2000/svg">
<path d="M6 14.5116C6 8.15393 11.0368 3 17.25 3C23.4632 3 28.5 8.15393 28.5 14.5116C28.5 17.9202 27.051 20.9838 24.7521 23.0901C23.9859 23.7921 23.4183 24.3122 23.016 24.6896C22.8148 24.8783 22.6611 25.0257 22.5476 25.1389C22.491 25.1953 22.4477 25.2399 22.4155 25.2745C22.3995 25.2916 22.3875 25.3049 22.3788 25.3149C22.3699 25.3251 22.3662 25.3297 22.3662 25.3297C22.0114 25.7777 21.9347 25.8932 21.8889 25.9979C21.8432 26.1026 21.8103 26.2383 21.7208 26.8076C21.6854 27.0323 21.6818 27.4173 21.6818 28.4651V28.5101C21.6818 29.1237 21.6819 29.6531 21.6434 30.0874C21.6027 30.5467 21.5126 31.0016 21.2708 31.4302C21.0015 31.9075 20.6141 32.3038 20.1477 32.5794C19.7288 32.8269 19.2843 32.919 18.8354 32.9607C18.4109 33 17.8937 33 17.294 33H17.206C16.6063 33 16.0891 33 15.6646 32.9607C15.2157 32.919 14.7712 32.8269 14.3523 32.5794C13.8859 32.3038 13.4985 31.9075 13.2292 31.4302C12.9874 31.0016 12.8973 30.5467 12.8566 30.0874C12.8181 29.6531 12.8182 29.1237 12.8182 28.5101L12.8182 28.4651C12.8182 27.4173 12.8146 27.0323 12.7792 26.8076C12.6897 26.2383 12.6568 26.1026 12.6111 25.9979C12.5653 25.8932 12.4886 25.7777 12.1338 25.3297C12.1338 25.3297 12.1297 25.3246 12.1212 25.3149C12.1125 25.3049 12.1005 25.2916 12.0845 25.2745C12.0523 25.2399 12.009 25.1953 11.9524 25.1389C11.8389 25.0257 11.6852 24.8783 11.484 24.6896C11.0817 24.3122 10.5141 23.7921 9.74788 23.0901C7.44904 20.9838 6 17.9202 6 14.5116Z" fill="white"/>
<path d="M19.6262 29.5123H14.871C14.8754 29.6577 14.8822 29.7848 14.8923 29.8991C14.9201 30.2133 14.967 30.3273 14.9992 30.3843C15.089 30.5434 15.2181 30.6755 15.3736 30.7674C15.4293 30.8003 15.5407 30.8483 15.8478 30.8768C16.1688 30.9066 16.5925 30.9076 17.2486 30.9076C17.9046 30.9076 18.3283 30.9066 18.6494 30.8768C18.9564 30.8483 19.0678 30.8003 19.1236 30.7674C19.279 30.6755 19.4081 30.5434 19.4979 30.3843C19.5301 30.3273 19.577 30.2133 19.6048 29.8991C19.615 29.7848 19.6217 29.6577 19.6262 29.5123Z" fill="#ED5551"/>
<path d="M18.9143 12.2653C19.3739 12.6013 19.4803 13.2549 19.152 13.7252L17.3851 16.2564H19.4886C19.8717 16.2564 20.2227 16.4755 20.398 16.8241C20.5733 17.1726 20.5435 17.5922 20.3209 17.9112L17.3988 22.0973C17.0705 22.5676 16.4317 22.6765 15.9721 22.3406C15.5125 22.0046 15.406 21.351 15.7343 20.8807L17.5013 18.3495H15.3977C15.0146 18.3495 14.6637 18.1304 14.4884 17.7818C14.3131 17.4333 14.3428 17.0137 14.5655 16.6947L17.4876 12.5086C17.8159 12.0383 18.4546 11.9294 18.9143 12.2653Z" fill="#ED5551"/>
</svg>
