<svg width="37" height="36" viewBox="0 0 37 36" fill="none" xmlns="http://www.w3.org/2000/svg">
<path d="M4.86328 15C4.86328 9.34315 4.86328 6.51472 6.62064 4.75736C8.378 3 11.2064 3 16.8633 3H19.8633C25.5201 3 28.3486 3 30.1059 4.75736C31.8633 6.51472 31.8633 9.34315 31.8633 15V21C31.8633 26.6569 31.8633 29.4853 30.1059 31.2426C28.3486 33 25.5201 33 19.8633 33H16.8633C11.2064 33 8.378 33 6.62064 31.2426C4.86328 29.4853 4.86328 26.6569 4.86328 21V15Z" fill="white"/>
<path d="M25.1416 24.752C25.4041 24.5472 25.6422 24.3091 26.1184 23.833L32.0545 17.8969C32.198 17.7534 32.1323 17.5062 31.9406 17.4396C31.2399 17.1966 30.3284 16.7401 29.4758 15.8875C28.6231 15.0349 28.1667 14.1234 27.9236 13.4227C27.8571 13.231 27.6099 13.1653 27.4664 13.3088L21.5303 19.2449C21.0542 19.7211 20.8161 19.9592 20.6113 20.2217C20.3698 20.5313 20.1627 20.8664 19.9938 21.2209C19.8505 21.5214 19.7441 21.8408 19.5311 22.4797L19.256 23.3051L18.8184 24.6177L18.4082 25.8484C18.3034 26.1628 18.3852 26.5094 18.6196 26.7437C18.8539 26.9781 19.2005 27.0599 19.5149 26.9551L20.7456 26.5448L22.0581 26.1073L22.8836 25.8322L22.8836 25.8322C23.5224 25.6192 23.8419 25.5127 24.1424 25.3695C24.4969 25.2006 24.832 24.9935 25.1416 24.752Z" fill="#ED5551"/>
<path d="M33.9131 16.0383C35.18 14.7713 35.18 12.7172 33.9131 11.4502C32.6461 10.1833 30.592 10.1833 29.325 11.4502L29.1342 11.6411C28.95 11.8252 28.8666 12.0824 28.9126 12.3388C28.9415 12.5 28.9952 12.7358 29.0928 13.0171C29.288 13.5797 29.6566 14.3182 30.3508 15.0125C31.0451 15.7067 31.7836 16.0753 32.3462 16.2705C32.6275 16.3681 32.8632 16.4218 33.0245 16.4507C33.2808 16.4967 33.5381 16.4133 33.7222 16.2291L33.9131 16.0383Z" fill="#ED5551"/>
<path fill-rule="evenodd" clip-rule="evenodd" d="M11.2383 13.5C11.2383 12.8787 11.742 12.375 12.3633 12.375H22.1133C22.7346 12.375 23.2383 12.8787 23.2383 13.5C23.2383 14.1213 22.7346 14.625 22.1133 14.625H12.3633C11.742 14.625 11.2383 14.1213 11.2383 13.5ZM11.2383 19.5C11.2383 18.8787 11.742 18.375 12.3633 18.375H16.8633C17.4846 18.375 17.9883 18.8787 17.9883 19.5C17.9883 20.1213 17.4846 20.625 16.8633 20.625H12.3633C11.742 20.625 11.2383 20.1213 11.2383 19.5ZM11.2383 25.5C11.2383 24.8787 11.742 24.375 12.3633 24.375H14.6133C15.2346 24.375 15.7383 24.8787 15.7383 25.5C15.7383 26.1213 15.2346 26.625 14.6133 26.625H12.3633C11.742 26.625 11.2383 26.1213 11.2383 25.5Z" fill="#ED5551"/>
</svg>
