<svg width="37" height="36" viewBox="0 0 37 36" fill="none" xmlns="http://www.w3.org/2000/svg">
<path d="M10.3214 6.90084C10.9883 6.45526 11.6884 6.06881 12.4139 5.74391C14.4717 4.82235 15.5007 4.36156 16.8695 5.24837C18.2383 6.13518 18.2383 7.58988 18.2383 10.4993V12.7493C18.2383 15.5777 18.2383 16.9919 19.117 17.8706C19.9956 18.7493 21.4099 18.7493 24.2383 18.7493H26.4883C29.3977 18.7493 30.8524 18.7493 31.7392 20.1181C32.626 21.4869 32.1652 22.5158 31.2437 24.5736C30.9188 25.2991 30.5323 25.9993 30.0867 26.6661C28.5209 29.0096 26.2954 30.836 23.6915 31.9146C21.0877 32.9931 18.2225 33.2753 15.4583 32.7255C12.694 32.1756 10.1549 30.8184 8.16202 28.8255C6.16912 26.8326 4.81194 24.2935 4.2621 21.5293C3.71226 18.7651 3.99446 15.8999 5.073 13.296C6.15155 10.6922 7.97801 8.46665 10.3214 6.90084Z" fill="white"/>
<path d="M33.1573 10.6035C31.9396 7.51244 29.4758 5.04865 26.3848 3.83094C24.0725 2.92001 21.9883 5.01471 21.9883 7.49999V13.5C21.9883 14.3284 22.6599 15 23.4883 15H29.4883C31.9736 15 34.0683 12.9158 33.1573 10.6035Z" fill="#ED5551"/>
</svg>
