<svg width="37" height="36" viewBox="0 0 37 36" fill="none" xmlns="http://www.w3.org/2000/svg">
<path d="M11.0085 29.5497C12.2385 28.2297 14.1134 28.3346 15.1934 29.7746L16.7085 31.7997C17.9235 33.4047 19.8884 33.4047 21.1034 31.7997L22.6185 29.7746C23.6985 28.3346 25.5735 28.2297 26.8035 29.5497C29.4735 32.3997 31.6484 31.4546 31.6484 27.4646V10.5746C31.6484 4.52962 30.2384 3.01465 24.5684 3.01465H13.2284C7.55844 3.01465 6.14844 4.52962 6.14844 10.5746V27.4646C6.16344 31.4546 8.35347 32.3847 11.0085 29.5497Z" fill="white"/>
<path d="M24.4044 20.205L23.2944 19.095C23.8644 18.225 24.2094 17.175 24.2094 16.05C24.2094 12.99 21.7193 10.5 18.6593 10.5C15.5993 10.5 13.1094 12.99 13.1094 16.05C13.1094 19.11 15.5993 21.6 18.6593 21.6C19.7843 21.6 20.8343 21.255 21.7043 20.685L22.8144 21.795C23.0394 22.02 23.3244 22.125 23.6094 22.125C23.8944 22.125 24.1794 22.02 24.4044 21.795C24.8394 21.36 24.8394 20.64 24.4044 20.205Z" fill="#ED5551"/>
</svg>
