<svg width="48" height="48" viewBox="0 0 48 48" fill="none" xmlns="http://www.w3.org/2000/svg">
<path d="M21.5017 4.89989C22.8817 3.71989 25.1417 3.71989 26.5417 4.89989L29.7017 7.62011C30.3017 8.14011 31.4217 8.56005 32.2217 8.56005H35.6217C37.7417 8.56005 39.4817 10.2999 39.4817 12.4199V15.8201C39.4817 16.6001 39.9017 17.7401 40.4217 18.3401L43.1417 21.5C44.3217 22.88 44.3217 25.14 43.1417 26.54L40.4217 29.6999C39.9017 30.2999 39.4817 31.42 39.4817 32.22V35.6201C39.4817 37.7401 37.7417 39.48 35.6217 39.48H32.2217C31.4417 39.48 30.3017 39.8999 29.7017 40.4199L26.5417 43.1399C25.1617 44.3199 22.9017 44.3199 21.5017 43.1399L18.3417 40.4199C17.7417 39.8999 16.6217 39.48 15.8217 39.48H12.3617C10.2417 39.48 8.50171 37.7401 8.50171 35.6201V32.1999C8.50171 31.4199 8.08173 30.2999 7.58173 29.6999L4.88172 26.52C3.72172 25.14 3.72172 22.9 4.88172 21.52L7.58173 18.3401C8.08173 17.7401 8.50171 16.6201 8.50171 15.8401V12.4199C8.50171 10.2999 10.2417 8.56005 12.3617 8.56005H15.8217C16.6017 8.56005 17.7417 8.14011 18.3417 7.62011L21.5017 4.89989Z" stroke="#253855" stroke-width="2" stroke-linecap="round" stroke-linejoin="round"/>
<path d="M19.7822 29.64L22.6822 31.88C23.0622 32.26 23.9022 32.44 24.4622 32.44H28.0022C29.1222 32.44 30.3422 31.6001 30.6222 30.4801L32.8622 23.64C33.3222 22.34 32.4822 21.2 31.0822 21.2H27.3422C26.7822 21.2 26.3222 20.7402 26.4022 20.0802L26.8622 17.0802C27.0422 16.2402 26.4822 15.3001 25.6422 15.0201C24.9022 14.7401 23.9622 15.12 23.5822 15.68L19.7422 21.38" stroke="#ED5551" stroke-width="2" stroke-miterlimit="10"/>
<path d="M15 29.6399V20.48C15 19.16 15.56 18.7 16.88 18.7H17.82C19.12 18.7 19.7 19.16 19.7 20.48V29.6399C19.7 30.9399 19.14 31.4199 17.82 31.4199H16.88C15.56 31.4199 15 30.9599 15 29.6399Z" stroke="#ED5551" stroke-width="2" stroke-linecap="round" stroke-linejoin="round"/>
</svg>
