<svg width="48" height="48" viewBox="0 0 48 48" fill="none" xmlns="http://www.w3.org/2000/svg">
<path d="M36.9397 33.66L37.7197 39.98C37.9197 41.64 36.1397 42.7999 34.7197 41.9399L26.3397 36.96C25.4197 36.96 24.5197 36.9 23.6397 36.78C25.1197 35.04 25.9997 32.84 25.9997 30.46C25.9997 24.78 21.0797 20.1801 14.9997 20.1801C12.6797 20.1801 10.5397 20.84 8.7597 22C8.6997 21.5 8.67969 21 8.67969 20.48C8.67969 11.38 16.5797 4 26.3397 4C36.0997 4 43.9997 11.38 43.9997 20.48C43.9997 25.88 41.2197 30.66 36.9397 33.66Z" stroke="#253855" stroke-width="2" stroke-linecap="round" stroke-linejoin="round"/>
<path d="M26 30.46C26 32.84 25.12 35.04 23.64 36.78C21.66 39.18 18.52 40.72 15 40.72L9.78 43.8199C8.9 44.3599 7.77999 43.62 7.89999 42.6L8.39999 38.66C5.71999 36.8 4 33.82 4 30.46C4 26.94 5.88001 23.84 8.76001 22C10.54 20.84 12.68 20.1801 15 20.1801C21.08 20.1801 26 24.78 26 30.46Z" stroke="#ED5551" stroke-width="2" stroke-linecap="round" stroke-linejoin="round"/>
</svg>
