<svg width="48" height="48" viewBox="0 0 48 48" fill="none" xmlns="http://www.w3.org/2000/svg">
<path d="M35.9962 14.32C35.8762 14.3 35.7362 14.3 35.6162 14.32C32.8562 14.22 30.6562 11.96 30.6562 9.16C30.6562 6.3 32.9562 4 35.8162 4C38.6762 4 40.9762 6.32 40.9762 9.16C40.9562 11.96 38.7562 14.22 35.9962 14.32Z" stroke="#253855" stroke-width="2" stroke-linecap="round" stroke-linejoin="round"/>
<path d="M33.935 28.8801C36.675 29.3401 39.695 28.8601 41.815 27.4401C44.635 25.5601 44.635 22.4801 41.815 20.6001C39.675 19.1801 36.615 18.7001 33.875 19.1801" stroke="#253855" stroke-width="2" stroke-linecap="round" stroke-linejoin="round"/>
<path d="M11.9331 14.32C12.0531 14.3 12.1931 14.3 12.3131 14.32C15.0731 14.22 17.2731 11.96 17.2731 9.16C17.2731 6.3 14.9731 4 12.1131 4C9.25313 4 6.95312 6.32 6.95312 9.16C6.97312 11.96 9.17313 14.22 11.9331 14.32Z" stroke="#253855" stroke-width="2" stroke-linecap="round" stroke-linejoin="round"/>
<path d="M13.995 28.8801C11.255 29.3401 8.235 28.8601 6.115 27.4401C3.295 25.5601 3.295 22.4801 6.115 20.6001C8.255 19.1801 11.315 18.7001 14.055 19.1801" stroke="#253855" stroke-width="2" stroke-linecap="round" stroke-linejoin="round"/>
<path d="M24.0002 29.2599C23.8802 29.2399 23.7402 29.2399 23.6202 29.2599C20.8602 29.1599 18.6602 26.8999 18.6602 24.0999C18.6602 21.2399 20.9602 18.9399 23.8202 18.9399C26.6802 18.9399 28.9802 21.2599 28.9802 24.0999C28.9602 26.8999 26.7602 29.1799 24.0002 29.2599Z" stroke="#ED5551" stroke-width="2" stroke-linecap="round" stroke-linejoin="round"/>
<path d="M18.1814 35.56C15.3614 37.44 15.3614 40.52 18.1814 42.4C21.3814 44.54 26.6214 44.54 29.8214 42.4C32.6414 40.52 32.6414 37.44 29.8214 35.56C26.6414 33.44 21.3814 33.44 18.1814 35.56Z" stroke="#ED5551" stroke-width="2" stroke-linecap="round" stroke-linejoin="round"/>
</svg>
