<svg width="48" height="48" viewBox="0 0 48 48" fill="none" xmlns="http://www.w3.org/2000/svg">
<path d="M24 30C27.3137 30 30 27.3137 30 24C30 20.6863 27.3137 18 24 18C20.6863 18 18 20.6863 18 24C18 27.3137 20.6863 30 24 30Z" stroke="#ED5551" stroke-width="2" stroke-miterlimit="10" stroke-linecap="round" stroke-linejoin="round"/>
<path d="M4 25.7601V22.2401C4 20.1601 5.7 18.4401 7.8 18.4401C11.42 18.4401 12.9 15.8801 11.08 12.7401C10.04 10.9401 10.66 8.60012 12.48 7.56012L15.94 5.58012C17.52 4.64012 19.56 5.20012 20.5 6.78012L20.72 7.16012C22.52 10.3001 25.48 10.3001 27.3 7.16012L27.52 6.78012C28.46 5.20012 30.5 4.64012 32.08 5.58012L35.54 7.56012C37.36 8.60012 37.98 10.9401 36.94 12.7401C35.12 15.8801 36.6 18.4401 40.22 18.4401C42.3 18.4401 44.02 20.1401 44.02 22.2401V25.7601C44.02 27.8401 42.32 29.5601 40.22 29.5601C36.6 29.5601 35.12 32.1201 36.94 35.2601C37.98 37.0801 37.36 39.4001 35.54 40.4401L32.08 42.4201C30.5 43.3601 28.46 42.8001 27.52 41.2201L27.3 40.8401C25.5 37.7001 22.54 37.7001 20.72 40.8401L20.5 41.2201C19.56 42.8001 17.52 43.3601 15.94 42.4201L12.48 40.4401C10.66 39.4001 10.04 37.0601 11.08 35.2601C12.9 32.1201 11.42 29.5601 7.8 29.5601C5.7 29.5601 4 27.8401 4 25.7601Z" stroke="#253855" stroke-width="2" stroke-miterlimit="10" stroke-linecap="round" stroke-linejoin="round"/>
</svg>
