<svg width="48" height="48" viewBox="0 0 48 48" fill="none" xmlns="http://www.w3.org/2000/svg">
<path d="M6.69971 4H24.4998C25.9798 4 27.1997 5.22001 27.1997 6.70001V9.65997C27.1997 10.74 26.5197 12.08 25.8597 12.76L20.0598 17.88C19.2598 18.56 18.7197 19.9 18.7197 20.98V26.78C18.7197 27.58 18.1798 28.66 17.4998 29.08L15.6197 30.3C13.8597 31.38 11.4397 30.16 11.4397 28V20.86C11.4397 19.92 10.8997 18.7 10.3597 18.02L5.23974 12.62C4.55974 11.94 4.01977 10.74 4.01977 9.91998V6.82001C3.99977 5.22001 5.21971 4 6.69971 4Z" stroke="#ED5551" stroke-width="2" stroke-miterlimit="10" stroke-linecap="round" stroke-linejoin="round"/>
<path d="M4 24.0005V30.0005C4 40.0005 8 44.0005 18 44.0005H30C40 44.0005 44 40.0005 44 30.0005V18.0005C44 11.7605 42.4399 7.84048 38.8199 5.80048C37.7999 5.22048 35.76 4.78047 33.9 4.48047" stroke="#253855" stroke-width="2" stroke-linecap="round" stroke-linejoin="round"/>
<path d="M26 26H36" stroke="#253855" stroke-width="2" stroke-linecap="round" stroke-linejoin="round"/>
<path d="M22 34H36" stroke="#253855" stroke-width="2" stroke-linecap="round" stroke-linejoin="round"/>
</svg>
