<svg width="227" height="90" viewBox="0 0 227 90" fill="none" xmlns="http://www.w3.org/2000/svg">
<g opacity="0.1">
<path d="M17.2942 72.8516H45.2032V90H0V45.1923H17.2942V72.8516Z" fill="white"/>
<path d="M227 0V65.6595C227 79.0955 216.006 90 202.44 90H54.419V72.8516H203.559C206.944 72.8516 209.697 70.1232 209.697 66.7687V16.4954L175.117 36.2827L140.538 16.4954V54.2809H123.235V0H143.417L175.117 18.1413L206.817 0H227Z" fill="white"/>
<path d="M112.909 24.9488V54.2899H95.6055V33.9748C95.6055 23.8933 87.3646 15.7261 77.1921 15.7261H0V0H87.7347C101.644 0 112.909 11.1729 112.909 24.9488Z" fill="white"/>
</g>
</svg>
