<svg width="371" height="16" viewBox="0 0 371 16" fill="none" xmlns="http://www.w3.org/2000/svg">
<path d="M370.993 2.71557C313.026 9.41222 55.0979 17.6289 0.583271 10.5836C0.545173 10.0614 1.14847 9.9861 1.88804 9.96346C8.08427 9.7738 114.665 9.95333 191.621 7.03754C216.556 6.0928 243.754 4.7694 269.441 4.14142C295.128 3.51343 370.993 2.71557 370.993 2.71557Z" fill="#6B8FCE"/>
<path d="M370.993 2.71557C313.026 9.41222 55.0979 17.6289 0.583271 10.5836C0.545173 10.0614 1.14847 9.9861 1.88804 9.96346C8.08427 9.7738 114.665 9.95333 191.621 7.03754C216.556 6.0928 243.754 4.7694 269.441 4.14142C295.128 3.51343 370.993 2.71557 370.993 2.71557Z" fill="url(#paint0_linear_3010_13393)"/>
<path d="M370.993 2.71557C313.026 9.41222 55.0979 17.6289 0.583271 10.5836C0.545173 10.0614 1.14847 9.9861 1.88804 9.96346C8.08427 9.7738 114.665 9.95333 191.621 7.03754C216.556 6.0928 243.754 4.7694 269.441 4.14142C295.128 3.51343 370.993 2.71557 370.993 2.71557Z" fill="url(#paint1_linear_3010_13393)"/>
<defs>
<linearGradient id="paint0_linear_3010_13393" x1="1.27228" y1="20.0265" x2="370.291" y2="-6.89914" gradientUnits="userSpaceOnUse">
<stop stop-color="#D32E8D"/>
<stop offset="1" stop-color="#D1254F"/>
</linearGradient>
<linearGradient id="paint1_linear_3010_13393" x1="-99.6807" y1="17.366" x2="307.392" y2="216.454" gradientUnits="userSpaceOnUse">
<stop stop-color="#E48533"/>
<stop offset="0.51811" stop-color="#E35353"/>
<stop offset="1" stop-color="#D1254F"/>
</linearGradient>
</defs>
</svg>
