<svg width="36" height="36" viewBox="0 0 36 36" fill="none" xmlns="http://www.w3.org/2000/svg">
<path d="M23.3689 17.9999C23.3689 20.9699 20.9689 23.3699 17.9989 23.3699C15.0289 23.3699 12.6289 20.9699 12.6289 17.9999C12.6289 15.0299 15.0289 12.6299 17.9989 12.6299C20.9689 12.6299 23.3689 15.0299 23.3689 17.9999Z" stroke="#ED5551" stroke-width="1.5" stroke-linecap="round" stroke-linejoin="round"/>
<path d="M18.0017 30.4051C23.2967 30.4051 28.2317 27.2851 31.6667 21.8851C33.0167 19.7701 33.0167 16.2151 31.6667 14.1001C28.2317 8.70008 23.2967 5.58008 18.0017 5.58008C12.7067 5.58008 7.77172 8.70008 4.33672 14.1001C2.98672 16.2151 2.98672 19.7701 4.33672 21.8851C7.77172 27.2851 12.7067 30.4051 18.0017 30.4051Z" stroke="#253855" stroke-width="1.5" stroke-linecap="round" stroke-linejoin="round"/>
</svg>
