<svg width="36" height="36" viewBox="0 0 36 36" fill="none" xmlns="http://www.w3.org/2000/svg">
<path d="M16.1253 3.67449C17.1603 2.78949 18.8553 2.78949 19.9053 3.67449L22.2753 5.71465C22.7253 6.10465 23.5653 6.41961 24.1653 6.41961H26.7153C28.3053 6.41961 29.6103 7.72451 29.6103 9.31451V11.8646C29.6103 12.4496 29.9253 13.3046 30.3153 13.7546L32.3553 16.1246C33.2403 17.1596 33.2403 18.8546 32.3553 19.9046L30.3153 22.2745C29.9253 22.7245 29.6103 23.5645 29.6103 24.1645V26.7147C29.6103 28.3047 28.3053 29.6095 26.7153 29.6095H24.1653C23.5803 29.6095 22.7253 29.9245 22.2753 30.3145L19.9053 32.3545C18.8703 33.2395 17.1753 33.2395 16.1253 32.3545L13.7553 30.3145C13.3053 29.9245 12.4653 29.6095 11.8653 29.6095H9.2703C7.6803 29.6095 6.37531 28.3047 6.37531 26.7147V24.1495C6.37531 23.5645 6.06032 22.7245 5.68532 22.2745L3.66031 19.8896C2.79031 18.8546 2.79031 17.1746 3.66031 16.1396L5.68532 13.7546C6.06032 13.3046 6.37531 12.4646 6.37531 11.8796V9.31451C6.37531 7.72451 7.6803 6.41961 9.2703 6.41961H11.8653C12.4503 6.41961 13.3053 6.10465 13.7553 5.71465L16.1253 3.67449Z" stroke="#253855" stroke-width="1.5" stroke-linecap="round" stroke-linejoin="round"/>
<path d="M14.8347 22.23L17.0097 23.91C17.2947 24.195 17.9247 24.33 18.3447 24.33H20.9997C21.8397 24.33 22.7547 23.7 22.9647 22.86L24.6447 17.73C24.9897 16.755 24.3597 15.9 23.3097 15.9H20.5047C20.0847 15.9 19.7397 15.5551 19.7997 15.0601L20.1447 12.8101C20.2797 12.1801 19.8597 11.4751 19.2297 11.2651C18.6747 11.0551 17.9697 11.34 17.6847 11.76L14.8047 16.035" stroke="#ED5551" stroke-width="1.5" stroke-miterlimit="10"/>
<path d="M11.25 22.2303V15.3604C11.25 14.3704 11.67 14.0254 12.66 14.0254H13.365C14.34 14.0254 14.775 14.3704 14.775 15.3604V22.2303C14.775 23.2053 14.355 23.5654 13.365 23.5654H12.66C11.67 23.5654 11.25 23.2203 11.25 22.2303Z" stroke="#ED5551" stroke-width="1.5" stroke-linecap="round" stroke-linejoin="round"/>
</svg>
