<svg width="36" height="36" viewBox="0 0 36 36" fill="none" xmlns="http://www.w3.org/2000/svg">
<path d="M18 29.25C24.2132 29.25 29.25 24.2132 29.25 18C29.25 11.7868 24.2132 6.75 18 6.75C11.7868 6.75 6.75 11.7868 6.75 18C6.75 24.2132 11.7868 29.25 18 29.25Z" stroke="#253855" stroke-width="1.5" stroke-linecap="round" stroke-linejoin="round"/>
<path d="M18 22.5C20.4853 22.5 22.5 20.4853 22.5 18C22.5 15.5147 20.4853 13.5 18 13.5C15.5147 13.5 13.5 15.5147 13.5 18C13.5 20.4853 15.5147 22.5 18 22.5Z" stroke="#ED5551" stroke-width="1.5" stroke-linecap="round" stroke-linejoin="round"/>
<path d="M18 6V3" stroke="#ED5551" stroke-width="1.5" stroke-linecap="round" stroke-linejoin="round"/>
<path d="M6 18H3" stroke="#ED5551" stroke-width="1.5" stroke-linecap="round" stroke-linejoin="round"/>
<path d="M18 30V33" stroke="#ED5551" stroke-width="1.5" stroke-linecap="round" stroke-linejoin="round"/>
<path d="M30 18H33" stroke="#ED5551" stroke-width="1.5" stroke-linecap="round" stroke-linejoin="round"/>
</svg>
