<svg width="36" height="36" viewBox="0 0 36 36" fill="none" xmlns="http://www.w3.org/2000/svg">
<path d="M21.4707 28.6017C21.4707 29.5171 20.8722 30.7176 20.1093 31.1829L18 32.5485C16.0403 33.764 13.3176 32.3984 13.3176 29.9673V21.9386C13.3176 20.8732 12.7192 19.5075 12.1059 18.7572L6.36129 12.6944C5.59835 11.9291 5 10.5785 5 9.66304V6.18144C5 4.36562 6.36136 3 8.02189 3H27.9781C29.6386 3 31 4.36561 31 6.03137V9.36289C31 10.5784 30.237 12.0941 29.4891 12.8445" stroke="#253855" stroke-width="1.5" stroke-miterlimit="10" stroke-linecap="round" stroke-linejoin="round"/>
<path d="M24 25C26.7614 25 29 22.7615 29 20C29 17.2386 26.7614 15 24 15C21.2386 15 19 17.2386 19 20C19 22.7615 21.2386 25 24 25Z" stroke="#ED5551" stroke-width="1.5" stroke-linecap="round" stroke-linejoin="round"/>
<path d="M30 26L28 24" stroke="#ED5551" stroke-width="1.5" stroke-linecap="round" stroke-linejoin="round"/>
</svg>
