<svg width="36" height="36" viewBox="0 0 36 36" fill="none" xmlns="http://www.w3.org/2000/svg">
<path d="M28.5 33C30.9853 33 33 30.9853 33 28.5C33 26.0147 30.9853 24 28.5 24C26.0147 24 24 26.0147 24 28.5C24 30.9853 26.0147 33 28.5 33Z" stroke="#ED5551" stroke-width="1.5" stroke-linecap="round" stroke-linejoin="round"/>
<path d="M28.5 24V9.75C28.5 8.1 27.15 6.75 25.5 6.75H17.25" stroke="#253855" stroke-width="1.5" stroke-linecap="round" stroke-linejoin="round"/>
<path d="M21 3L16.5 6.75L21 10.5" stroke="#253855" stroke-width="1.5" stroke-linecap="round" stroke-linejoin="round"/>
<path d="M7.5 12V26.25C7.5 27.9 8.85 29.25 10.5 29.25H18.75" stroke="#253855" stroke-width="1.5" stroke-linecap="round" stroke-linejoin="round"/>
<path d="M15 33L19.5 29.25L15 25.5" stroke="#253855" stroke-width="1.5" stroke-linecap="round" stroke-linejoin="round"/>
<path d="M7.5 12C9.98528 12 12 9.98528 12 7.5C12 5.01472 9.98528 3 7.5 3C5.01472 3 3 5.01472 3 7.5C3 9.98528 5.01472 12 7.5 12Z" stroke="#ED5551" stroke-width="1.5" stroke-linecap="round" stroke-linejoin="round"/>
</svg>
